<?xml version="1.0" encoding="UTF-8" standalone="no"?>
<svg
   xmlns:dc="http://purl.org/dc/elements/1.1/"
   xmlns:cc="http://creativecommons.org/ns#"
   xmlns:rdf="http://www.w3.org/1999/02/22-rdf-syntax-ns#"
   xmlns:svg="http://www.w3.org/2000/svg"
   xmlns="http://www.w3.org/2000/svg"
   id="svg4891"
   version="1.1"
   viewBox="0 0 67.733333 67.733334"
   height="84.666664mm"
   width="84.666664mm">
  <defs
     id="defs4885" />
  <metadata
     id="metadata4888">
    <rdf:RDF>
      <cc:Work
         rdf:about="">
        <dc:format>image/svg+xml</dc:format>
        <dc:type
           rdf:resource="http://purl.org/dc/dcmitype/StillImage" />
        <dc:title></dc:title>
      </cc:Work>
    </rdf:RDF>
  </metadata>
  <g
     transform="translate(-61.148348,-35.566174)"
     id="layer1">
    <path
       id="rect29"
       d="m 65.148106,35.717362 c -2.215995,0 -3.999757,1.783759 -3.999757,3.999755 v 59.733409 c 0,2.216004 1.783762,4.000174 3.999757,4.000174 h 59.733404 c 2.216,0 4.00017,-1.78417 4.00017,-4.000174 V 39.717117 c 0,-2.215996 -1.78417,-3.999755 -4.00017,-3.999755 z m 51.335784,6.349587 a 7.2571426,7.2571426 0 0 1 7.25702,7.257438 7.2571426,7.2571426 0 0 1 -7.25702,7.257024 7.2571426,7.2571426 0 0 1 -7.25703,-7.257024 7.2571426,7.2571426 0 0 1 7.25703,-7.257438 z M 94.410198,57.791054 A 11.792858,11.792858 0 0 1 106.20317,69.584029 11.792858,11.792858 0 0 1 94.410198,81.37659 11.792858,11.792858 0 0 1 82.617218,69.584029 11.792858,11.792858 0 0 1 94.410198,57.791054 Z m 14.211842,8.920178 h 16.63113 v 5.140358 h -16.63113 v -0.276984 a 14.816666,14.816666 0 0 0 0.21084,-2.383318 14.816666,14.816666 0 0 0 -0.21084,-2.477576 z m -44.147796,0.453512 h 14.941519 a 14.816666,14.816666 0 0 0 -0.124852,1.814464 14.816666,14.816666 0 0 0 0.396875,3.325895 H 64.474244 Z"
       style="fill:#ececec;stroke-width:0.21166666" />
  </g>
</svg>
