<?xml version="1.0" encoding="UTF-8" standalone="no"?>
<svg
   xmlns:dc="http://purl.org/dc/elements/1.1/"
   xmlns:cc="http://creativecommons.org/ns#"
   xmlns:rdf="http://www.w3.org/1999/02/22-rdf-syntax-ns#"
   xmlns:svg="http://www.w3.org/2000/svg"
   xmlns="http://www.w3.org/2000/svg"
   xmlns:sodipodi="http://sodipodi.sourceforge.net/DTD/sodipodi-0.dtd"
   xmlns:inkscape="http://www.inkscape.org/namespaces/inkscape"
   viewBox="0 0 500.10236 500.10235"
   height="500.10236"
   width="500.10236"
   id="svg4485"
   version="1.1"
   sodipodi:docname="mainicon.svg"
   inkscape:version="0.92.1 r15371">
  <sodipodi:namedview
     pagecolor="#ffffff"
     bordercolor="#666666"
     borderopacity="1"
     objecttolerance="10"
     gridtolerance="10"
     guidetolerance="10"
     inkscape:pageopacity="0"
     inkscape:pageshadow="2"
     inkscape:window-width="1920"
     inkscape:window-height="1138"
     id="namedview6"
     showgrid="false"
     inkscape:zoom="0.8031089"
     inkscape:cx="117.35998"
     inkscape:cy="114.78041"
     inkscape:window-x="1358"
     inkscape:window-y="-8"
     inkscape:window-maximized="1"
     inkscape:current-layer="svg4485" />
  <metadata
     id="metadata4491">
    <rdf:RDF>
      <cc:Work
         rdf:about="">
        <dc:format>image/svg+xml</dc:format>
        <dc:type
           rdf:resource="http://purl.org/dc/dcmitype/StillImage" />
        <dc:title></dc:title>
      </cc:Work>
    </rdf:RDF>
  </metadata>
  <defs
     id="defs4489" />
  <path
     id="path4521"
     d="m 156.08041,364.35241 c -3.5125,-0.73655 -8.95361,-2.40791 -9.92,-3.0472 -0.616,-0.40749 -1.696,-0.93063 -2.4,-1.16253 -1.46597,-0.48288 -2.58013,-1.17363 -4.68441,-2.90419 -0.87344,-0.71831 -1.82567,-1.22077 -2.31352,-1.22077 -1.27916,0 -3.1762,-0.89626 -3.85241,-1.82003 -0.58581,-0.80032 -0.60743,-1.57578 -0.53818,-19.30362 l 0.0722,-18.46982 -1.62703,-1.19434 c -0.89487,-0.65689 -2.26329,-2.02121 -3.04093,-3.03181 l -1.4139,-1.83747 -11.78089,-0.2127 c -6.47953,-0.11698 -21.284933,-0.29457 -32.900934,-0.39464 -11.616,-0.10007 -22.2,-0.32569 -23.52,-0.50139 -1.32,-0.17569 -4.056,-0.38335 -6.08,-0.46147 -4.293971,-0.16572 -7.577933,-0.60172 -9.6,-1.27457 -1.440477,-0.47931 -5.192406,-0.71857 -22.08,-1.40798 -4.553801,-0.1859 -8.778864,-0.52337 -10.07988,-0.80511 -1.2319354,-0.26677 -3.2479354,-0.49612 -4.4800004,-0.50964 -2.843524,-0.0312 -4.56288,-0.55016 -5.35996597,-1.61777 -1.3005331,-1.74192 0.260657,-4.12314 2.03936797,-3.11056 0.458468,0.26099 2.349004,0.51402 4.760478,0.63714 2.2,0.11232 6.8800004,0.37344 10.4000004,0.58026 4.686214,0.27534 7.813875,0.28513 11.68,0.0365 8.052166,-0.51772 13.789514,-0.5206 14.72992,-0.007 0.556387,0.30364 2.446458,0.45776 6.39008,0.52105 3.08,0.0494 7.264662,0.18591 9.299251,0.30328 4.720195,0.27232 8.633472,-0.2426 10.250445,-1.34878 1.331718,-0.91104 3.755264,-1.24601 11.330304,-1.56606 3.381962,-0.14289 5.319949,-0.0836 6.56,0.20073 3.343591,0.76661 9.611081,0.15315 13.280004,-1.29984 3.55192,-1.40665 6.61299,-1.94402 11.07403,-1.94402 2.73049,0 4.47677,-0.17356 6.13185,-0.60942 1.27277,-0.33519 3.25012,-0.71091 4.39412,-0.83495 1.65767,-0.17972 2.84345,-0.61903 5.84,-2.1636 l 3.76,-1.93808 -9.6e-4,-14.26697 c -0.001,-19.57704 1.04407,-50.19733 2.20236,-64.50697 0.39434,-4.87172 0.51151,-10.53374 0.2275,-10.99329 -0.29324,-0.47447 -2.68837,-0.64813 -11.08412,-0.80368 -7.87624,-0.14593 -7.43476,-0.0871 -16.30475,-2.17397 -6.44244,-1.51576 -8.058823,-1.62958 -22.400008,-1.57737 -7.48,0.0272 -17.776,-0.0991 -22.88,-0.28082 -19.149197,-0.68163 -25.913344,-0.77201 -27.066855,-0.36162 -2.380224,0.84681 -8.604592,1.74786 -12.933145,1.87222 -5.384824,0.15469 -16.5155104,-0.44557 -17.6235364,-0.95042 -2.415472,-1.10056 1.273321,-1.70766 12.0235364,-1.97884 8.751379,-0.22075 11.802243,-0.60808 16.879382,-2.14296 2.302698,-0.69613 11.617648,-1.03975 42.960618,-1.58478 9.944,-0.17292 20.672005,-0.44272 23.840008,-0.59956 3.168,-0.15684 8.568,-0.36049 12,-0.45256 8.36828,-0.2245 13.95464,-0.94304 17.83271,-2.29371 3.02593,-1.05388 5.56601,-2.60711 6.27753,-3.83864 0.25048,-0.43356 0.43611,-4.45922 0.57546,-12.48 0.11313,-6.512 0.30956,-14.072 0.4365,-16.8 0.19416,-4.17271 0.1225,-5.77269 -0.45151,-10.08 -0.37527,-2.816 -0.97386,-5.984 -1.3302,-7.04 -1.01947,-3.02118 -1.11136,-4.35744 -0.3547,-5.15797 0.35246,-0.37289 1.01776,-1.42181 1.47845,-2.33094 0.46069,-0.90912 1.1207,-1.93603 1.46668,-2.28202 0.66394,-0.66393 2.21377,-0.83103 3.135,-0.33801 0.32908,0.17612 1.67921,0.16594 3.41896,-0.0258 2.05095,-0.22601 3.56549,-0.20969 5.2835,0.0569 2.20634,0.34239 2.56876,0.31611 4.32,-0.31326 1.65139,-0.59348 3.00065,-0.72612 9.91162,-0.97434 4.4,-0.15803 11.744,-0.28822 16.32,-0.28932 8.12372,-0.002 8.39926,0.0193 11.68,0.901 1.848,0.49665 5.02918,1.67941 7.06929,2.62835 4.83953,2.25107 5.3328,2.44561 6.85071,2.70174 1.42119,0.23982 7.11752,2.61526 9.6,4.00333 0.88,0.49204 2.52329,1.13088 3.65177,1.41963 1.12847,0.28876 3.28847,1.15052 4.8,1.91502 1.51152,0.76451 3.73277,1.63369 4.93609,1.93152 1.20333,0.29783 3.24589,1.03035 4.53903,1.62781 1.29314,0.59747 2.50066,1.08631 2.68338,1.08631 0.18273,0 1.09217,0.35101 2.02098,0.78002 0.92881,0.42901 2.69675,1.0756 3.92875,1.43685 1.232,0.36126 3.392,1.31754 4.8,2.12507 1.408,0.80753 3.28,1.76952 4.16,2.13775 0.88,0.36823 1.744,0.76988 1.92,0.89257 0.176,0.12268 1.112,0.48093 2.08,0.79611 3.07201,1.00026 14.80096,6.88982 16.23709,8.15327 0.80472,0.70797 5.10288,3.07427 10.56,5.81369 5.0616,2.54087 10.64291,5.38393 12.40291,6.31792 4.17769,2.217 12.8566,7.99547 15.15298,10.08895 0.99386,0.90605 2.52702,2.10222 3.40702,2.65816 2.25161,1.42246 5.24339,4.58493 7.24988,7.66348 4.18736,6.42471 4.88896,7.6086 7.9713,13.45126 1.41414,2.68058 3.09533,5.2049 3.46643,5.2049 0.14128,0 0.73127,-0.16538 1.31107,-0.36749 0.79824,-0.27827 1.30669,-0.27619 2.09418,0.009 0.88531,0.32014 1.29482,0.27456 2.75354,-0.30647 2.94515,-1.17306 7.79881,-0.42365 9.3936,1.45038 0.63475,0.74592 3.0318,1.6226 6.56,2.39923 3.9623,0.87219 5.85456,1.6786 7.45772,3.17816 0.86272,0.80698 1.98116,2.28453 2.48541,3.28345 0.93786,1.85787 1.72749,3.10044 3.22541,5.07539 1.38541,1.82664 1.93744,3.51038 2.15034,6.55878 l 0.20112,2.88 6.00646,0.0871 c 4.46029,0.0647 6.47846,-0.0333 7.84,-0.38057 1.58752,-0.40491 4.89722,-0.89239 11.11354,-1.63691 0.88,-0.1054 7,-0.30479 13.6,-0.44309 6.6,-0.1383 12.576,-0.40052 13.28,-0.58271 3.55545,-0.92011 13.96224,-2.6438 15.96198,-2.6438 0.64304,0 2.49866,-0.27603 4.12358,-0.6134 1.62496,-0.33736 3.96244,-0.70066 5.19444,-0.80732 1.232,-0.10666 4.256,-0.61484 6.72,-1.12929 6.48985,-1.355 11.28291,-1.73334 20.96,-1.6545 15.18076,0.12369 23.23536,0.76188 25.2144,1.9978 1.81225,1.13177 0.56166,1.44569 -7.4544,1.87118 -4.048,0.21487 -11.896,0.51353 -17.44,0.66369 -10.90471,0.29536 -16.28068,0.80724 -21.28,2.02622 -1.76,0.42914 -4.136,0.87622 -5.28,0.99353 -1.144,0.11731 -3.448,0.48451 -5.12,0.816 -1.672,0.3315 -3.904,0.68967 -4.96,0.79594 -3.66778,0.3691 -11.35418,1.91003 -16,3.20761 -1.056,0.29494 -2.712,0.72514 -3.68,0.956 -0.968,0.23086 -4.928,1.23185 -8.8,2.22444 -7.53332,1.93116 -9.19805,2.25947 -13.87853,2.73699 -3.45264,0.35226 -6.33287,0.86724 -8.28634,1.48158 -0.75065,0.23608 -2.40665,0.58401 -3.68,0.77318 -1.27331,0.18917 -3.32313,0.61503 -4.55513,0.94635 -1.232,0.33132 -3.67908,0.70381 -5.43792,0.82776 -2.957,0.20838 -3.26148,0.29343 -4.04199,1.12895 -0.65469,0.70086 -0.89366,1.36678 -1.06515,2.96814 -0.29306,2.73644 -0.92371,5.05185 -1.73242,6.36036 -0.36284,0.58706 -1.86403,2.02181 -3.33603,3.18833 -1.472,1.16653 -3.22976,2.74184 -3.90611,3.50071 -0.67638,0.75886 -1.96118,2.00301 -2.8551,2.76477 -0.89389,0.76177 -2.5474,2.20177 -3.67444,3.2 -2.67772,2.37172 -2.6967,2.38424 -6.34972,4.1903 l -3.13322,1.54906 -0.56275,2.97685 c -0.75671,4.00291 -2.19303,8.1816 -3.52858,10.2657 -1.27648,1.99192 -5.43942,6.01976 -8.79734,8.5118 -1.28743,0.95545 -2.41328,1.92609 -2.50186,2.15697 -0.29235,0.7618 -7.2431,6.09818 -11.47737,8.81163 -2.288,1.46622 -4.592,2.98668 -5.12,3.37881 -0.528,0.39213 -2.544,1.48976 -4.48,2.4392 -1.936,0.94941 -4.3943,2.32624 -5.46288,3.05955 -2.31337,1.58759 -4.97825,2.91619 -10.37712,5.17357 -2.2,0.91987 -4.792,2.00458 -5.76,2.41043 -0.968,0.40586 -3.056,1.21383 -4.64,1.79546 -1.584,0.58166 -3.312,1.37369 -3.84,1.76006 -0.528,0.38637 -1.608,1.0272 -2.4,1.42407 -0.792,0.39689 -2.27223,1.28556 -3.2894,1.97488 -4.04515,2.74121 -12.30114,6.5936 -19.35437,9.03104 -5.67099,1.95974 -8.11581,2.91481 -10.35523,4.04528 -1.06155,0.53587 -4.61904,1.89161 -7.90554,3.01276 -3.2865,1.12112 -7.55946,2.61652 -9.49546,3.32301 -3.70558,1.35232 -12.74599,4.14835 -16,4.94851 -1.056,0.25965 -3.11714,0.91152 -4.5803,1.44855 -2.91752,1.07088 -10.19614,2.28352 -13.76535,2.29337 -1.1739,0.003 -3.35835,0.22167 -4.85435,0.48538 -4.58311,0.80787 -9.02429,1.71459 -11.04,2.25392 -1.43424,0.38378 -3.7821,0.53786 -9.28,0.60906 -4.048,0.0524 -7.864,-0.0102 -8.48,-0.13956 z m 14.72,-7.02762 c 0.792,-0.14013 2.376,-0.48691 3.52,-0.77059 1.144,-0.28371 3.0832,-0.73846 4.30932,-1.01056 1.56319,-0.34691 2.51937,-0.76755 3.2,-1.40768 1.44803,-1.36189 6.54497,-4.71245 8.34964,-5.4888 0.86957,-0.37405 3.4206,-1.17085 5.66895,-1.77066 2.24836,-0.5998 4.54393,-1.32633 5.10128,-1.61456 1.68854,-0.87318 5.38297,-2.04633 8.07357,-2.56371 1.39851,-0.26896 2.97444,-0.71222 3.50207,-0.98505 0.52762,-0.27287 2.55138,-0.89972 4.49724,-1.39303 1.94586,-0.49334 4.54547,-1.1952 5.77691,-1.55971 1.23144,-0.36448 2.63904,-0.66272 3.12799,-0.66272 0.48895,0 1.85741,-0.48707 3.04102,-1.08234 2.85769,-1.43728 15.14869,-4.99766 17.2527,-4.99766 0.33751,0 1.32592,-0.35226 2.19648,-0.78275 3.44818,-1.70525 5.96958,-2.62186 11.49026,-4.17703 1.04909,-0.29552 2.48909,-0.93008 3.2,-1.41014 4.4485,-3.00394 7.20776,-4.68282 10.81477,-6.58016 4.03288,-2.12138 9.34558,-6.01146 13.81001,-10.11195 1.04072,-0.95588 3.27272,-2.7887 4.96,-4.07293 8.48746,-6.45998 12.88274,-9.68802 14.91167,-10.95162 1.22986,-0.76594 3.55423,-2.37348 5.16527,-3.57231 2.59344,-1.92984 3.10375,-2.48236 4.452,-4.82039 0.83754,-1.4524 2.29114,-3.79272 3.23018,-5.20072 1.40733,-2.11016 1.81408,-3.05075 2.31478,-5.35279 l 0.60743,-2.7928 -1.24772,-1.1272 c -0.6862,-0.61997 -1.39283,-1.12721 -1.57024,-1.12721 -0.17744,0 -1.4951,-1.116 -2.92812,-2.48 -2.12154,-2.01931 -2.8097,-2.92583 -3.70448,-4.88 -0.60439,-1.32 -1.60823,-3.10924 -2.23072,-3.97609 -1.96666,-2.73868 -2.0128,-2.98737 -2.00672,-10.81363 0.007,-8.72447 0.33852,-12.0695 1.55228,-15.6519 1.25508,-3.70444 3.9537,-8.73511 5.67796,-10.58466 0.77232,-0.82846 1.40422,-1.66607 1.40422,-1.86135 0,-0.19528 -0.3455,-0.81345 -0.76781,-1.37371 -0.42227,-0.56026 -1.12787,-1.77174 -1.56797,-2.69218 -0.44012,-0.92045 -1.21756,-2.21645 -1.72764,-2.88 -0.51012,-0.66356 -1.19696,-1.63847 -1.52634,-2.16647 -1.93027,-3.09417 -9.30407,-10.5273 -16.01024,-16.13903 -7.62675,-6.38207 -9.25926,-7.67699 -12.32,-9.7723 -1.672,-1.14461 -4.984,-3.44542 -7.36,-5.11292 -2.376,-1.66749 -7.1223,-4.93415 -10.54733,-7.25925 -3.42503,-2.32509 -6.80903,-4.75337 -7.52,-5.39617 -5.31853,-4.80859 -10.32242,-7.50593 -17.29267,-9.32157 -7.57802,-1.97397 -18.04117,-6.21461 -23.46716,-9.51107 -1.71821,-1.04387 -4.16401,-2.3405 -5.43511,-2.8814 -1.27109,-0.5409 -3.14888,-1.47448 -4.17286,-2.07462 -1.02399,-0.60014 -4.22499,-2.2427 -7.11333,-3.65014 -4.37019,-2.12951 -5.62756,-2.90716 -7.49203,-4.63361 -3.05751,-2.83117 -3.9245,-3.02427 -14.71951,-3.27851 -16.95273,-0.39926 -21.57483,-0.34408 -23.72751,0.28329 -1.43898,0.41937 -2.75007,0.54303 -4.88068,0.46035 l -2.91316,-0.11305 -0.18727,1.12 c -0.10299,0.616 -0.25689,1.37358 -0.342,1.68351 -0.19126,0.69652 -1.71681,1.51649 -2.82141,1.51649 -0.5992,0 -0.91278,0.234 -1.15012,0.85827 -0.48406,1.27318 -0.50361,7.77429 -0.0441,14.66173 0.22311,3.344 0.48246,11.768 0.57633,18.72 0.13828,10.24166 0.26406,12.9011 0.66288,14.01606 0.58227,1.62785 0.37844,3.15256 -0.58525,4.37769 -0.6546,0.8322 -0.66466,0.99426 -0.32605,5.25359 0.19216,2.4172 0.49989,4.79078 0.68385,5.27462 0.72471,1.90614 0.29933,3.97736 -1.03478,5.03848 -0.59582,0.4739 -0.6648,0.94614 -0.77128,5.28 -0.0643,2.61776 -0.25702,5.45065 -0.42821,6.29531 -0.1712,0.84466 -0.31127,3.53878 -0.31127,5.98693 0,2.44815 -0.13889,5.50105 -0.30865,6.78424 -0.66585,5.03307 -0.97876,28.36246 -0.99057,73.85307 l -0.0123,47.52 2.49578,1.66298 c 1.37268,0.91465 2.92777,1.76038 3.45577,1.87942 0.528,0.11907 1.68,0.5808 2.56,1.02611 0.88,0.44535 2.032,0.92378 2.56,1.06323 0.528,0.13949 1.968,0.53114 3.2,0.87037 1.84018,0.50669 3.35379,0.62061 8.48,0.63824 3.432,0.0118 6.888,-0.0932 7.68,-0.23328 z m 51.66546,-69.61253 c -1.17272,-1.17271 -1.03957,-2.46432 0.42282,-4.10169 0.66456,-0.74407 1.45567,-1.85685 1.75803,-2.47285 0.30236,-0.616 0.72693,-1.3673 0.9435,-1.66956 0.32581,-0.45474 0.23526,-0.86885 -0.5248,-2.4 -1.15831,-2.33345 -2.03037,-4.64121 -2.45259,-6.49044 -0.4461,-1.95375 -3.07169,-6.1462 -3.76577,-6.01304 -0.28966,0.0556 -0.88925,0.77165 -1.33242,1.59131 -0.44317,0.81965 -1.24078,2.04185 -1.77247,2.716 -0.53169,0.67415 -1.63541,2.30978 -2.45271,3.63473 -1.55531,2.52135 -2.17889,3.17498 -5.84905,6.13099 -1.232,0.99228 -2.55588,2.23189 -2.94195,2.7547 -0.45216,0.6123 -1.59087,1.33394 -3.2,2.02793 -2.48013,1.06965 -2.53362,1.07737 -7.45805,1.07616 -5.77361,-0.001 -9.67209,-0.48873 -10.83079,-1.35383 -2.0175,-1.50627 -2.13092,-1.91207 -2.11005,-7.54944 0.0173,-4.67676 0.0995,-5.42221 0.85244,-7.73551 0.45831,-1.408 0.93595,-3.05903 1.06142,-3.66897 0.12547,-0.60993 0.87424,-2.26593 1.66394,-3.68 0.7897,-1.41406 1.9477,-3.50703 2.57332,-4.65103 1.90027,-3.47477 4.41333,-7.12884 5.83205,-8.48 0.7392,-0.704 2.13982,-2.34796 3.1125,-3.65324 l 1.76849,-2.37323 -0.50098,-1.62677 c -0.27554,-0.89472 -0.66506,-2.56276 -0.86561,-3.70676 -0.20054,-1.144 -0.52107,-2.44 -0.71227,-2.88 -0.19121,-0.44 -0.45335,-2.024 -0.58254,-3.52 -0.34508,-3.99605 -1.22241,-11.41972 -1.58582,-13.41876 -0.17469,-0.96089 -0.3161,-7.60241 -0.3161,-14.8455 0,-12.11033 0.0479,-13.26764 0.63037,-15.2234 0.93035,-3.12393 2.26817,-5.04883 4.09569,-5.89301 1.35748,-0.62705 2.14609,-0.71006 7.63089,-0.80325 7.04503,-0.11969 8.40776,0.11769 9.92775,1.72935 1.71214,1.8154 3.70319,5.48983 4.88796,9.0206 0.54706,1.63032 0.62547,2.97113 0.70612,12.07398 0.0887,10.01049 0.0747,10.2755 -0.62422,11.82372 -0.39322,0.87104 -0.85804,2.59268 -1.03294,3.82586 -0.2916,2.05606 -1.51859,6.10968 -2.71888,8.98237 -0.26726,0.63965 -0.62753,1.91113 -0.80059,2.82552 -0.46649,2.46473 -2.63997,6.68812 -4.06053,7.89016 -0.66089,0.55924 -1.53801,1.32184 -1.94915,1.69466 -0.80376,0.72885 -3.57247,4.235 -3.57247,4.52398 0,0.58016 4.01816,5.37139 5.02621,5.99322 0.66759,0.4118 2.32079,1.72338 3.67378,2.91462 1.353,1.19123 2.5879,2.16588 2.74422,2.16588 0.5562,0 1.66186,-1.4801 2.15823,-2.88911 0.27723,-0.78699 1.05173,-2.00689 1.72109,-2.71089 0.66937,-0.704 1.55619,-1.784 1.9707,-2.4 0.41451,-0.616 0.93189,-1.23012 1.14972,-1.36471 0.9238,-0.57078 7.16137,-7.94799 8.06566,-9.53931 0.99931,-1.75852 3.26386,-4.46736 5.7151,-6.83638 0.73959,-0.71478 1.97958,-2.2124 2.75554,-3.32804 1.57929,-2.27062 2.82708,-3.24631 4.15564,-3.24944 2.50588,-0.006 4.16661,2.48581 3.05186,4.57892 -0.75114,1.41036 -3.04278,4.2899 -5.60056,7.03731 -1.4431,1.55009 -3.31001,3.92609 -4.14868,5.28 -0.86733,1.40017 -3.42942,4.50016 -5.94168,7.18911 -2.42926,2.60011 -4.41683,4.91419 -4.41683,5.14241 0,0.22821 -0.47926,0.98085 -1.06503,1.67253 -0.58577,0.69168 -1.47914,2.02551 -1.98527,2.96407 -0.50613,0.93856 -1.32286,2.04526 -1.81496,2.45934 -0.49211,0.41408 -0.89474,0.89633 -0.89474,1.07167 0,0.17534 0.51495,0.94064 1.14434,1.70066 1.93189,2.33287 3.26641,4.95079 3.9841,7.81555 0.7932,3.16616 1.47233,4.92631 1.90078,4.92631 0.16534,0 0.77541,-0.59123 1.3557,-1.31384 2.30839,-2.87454 6.60879,-3.93698 7.15335,-1.76728 0.28369,1.1303 -0.29325,1.96699 -2.01907,2.92806 -1.69026,0.94127 -3.90052,3.4749 -5.6798,6.51079 -0.64578,1.10185 -1.36776,2.07766 -1.60441,2.16847 -0.50381,0.19333 -1.11499,1.79018 -1.11499,2.91316 0,0.46428 -0.4052,1.16238 -0.99384,1.71225 -1.31321,1.22672 -3.15569,1.28795 -4.3007,0.14293 z M 198.4163,277.41561 c 0.56326,-0.28716 1.68288,-1.11516 2.48805,-1.84 0.80516,-0.72484 2.30169,-1.96589 3.32562,-2.75789 1.46796,-1.13546 2.5272,-2.45513 5.00856,-6.24 1.73078,-2.64 3.47425,-5.25319 3.87438,-5.80708 0.40012,-0.5539 0.7275,-1.19547 0.7275,-1.42571 0,-0.54043 -4.36866,-4.20508 -6.06,-5.08342 -0.81295,-0.42219 -1.89331,-1.4785 -2.88364,-2.81946 -0.87101,-1.17938 -1.93957,-2.53784 -2.37458,-3.0188 l -0.79092,-0.87447 -2.42543,2.60542 c -6.42132,6.89787 -11.88001,18.23314 -11.86948,24.64762 0.003,2.00641 0.10807,2.52468 0.56405,2.79027 0.308,0.17939 2.54715,0.33055 4.97589,0.3359 3.46618,0.008 4.63615,-0.10256 5.44,-0.51238 z m 8.83755,-44.59789 c 0.4355,0 1.87309,-3.29352 2.54361,-5.82742 0.33949,-1.28292 1.12936,-3.6941 1.75527,-5.3582 0.62592,-1.66409 1.23243,-3.82409 1.34781,-4.8 0.11538,-0.9759 0.61718,-2.80708 1.1151,-4.06929 l 0.90532,-2.29492 0.0952,-9.08504 0.0952,-9.08505 -1.72385,-3.42607 c -1.20617,-2.3972 -1.92555,-3.47579 -2.39551,-3.59164 -0.36941,-0.091 -2.90366,-0.12434 -5.63166,-0.074 l -4.96,0.0916 -0.71315,1.44 c -0.69959,1.41263 -0.71384,1.68329 -0.74958,14.24 -0.035,12.29227 -9.6e-4,13.06656 0.85484,19.52 0.4902,3.696 0.86736,7.25276 0.83811,7.90393 -0.0292,0.65117 0.16168,1.79288 0.42427,2.53713 0.26259,0.74426 0.63418,2.37148 0.82576,3.61606 0.19158,1.24458 0.41584,2.37482 0.49835,2.51165 0.0825,0.13684 1.152,-0.76316 2.37662,-2 1.22463,-1.23683 2.34883,-2.24878 2.49822,-2.24878 z m 136.66726,36.15965 c 2.39424,-1.20862 6.4176,-4.73336 11.80788,-10.3445 0.98528,-1.02567 2.40342,-2.29258 3.15142,-2.81537 1.5007,-1.04886 1.62032,-1.38173 0.816,-2.2705 -0.8665,-0.95745 -0.68205,-2.51543 0.46739,-3.94841 1.50032,-1.87037 1.78013,-3.75282 1.61175,-10.84357 l -0.14477,-6.0973 -1.64471,-2.41316 c -1.75155,-2.57001 -2.13427,-2.96271 -4.8736,-5.0009 -1.09596,-0.81547 -2.24956,-1.37848 -3.0806,-1.50353 -0.73072,-0.10995 -2.96272,-0.94527 -4.96,-1.85628 l -3.63146,-1.65636 -4.71722,-0.24959 -4.71721,-0.24959 -3.12279,1.55421 c -2.03894,1.01479 -3.61792,2.06459 -4.5494,3.02471 -1.37111,1.41327 -1.49863,1.47049 -3.2768,1.47049 h -1.85015 l -1.48483,2.95646 c -2.91824,5.81056 -3.28029,7.62674 -3.52522,17.68354 l -0.16368,6.72 1.30951,2.01985 c 0.72022,1.11092 1.81609,2.98292 2.43523,4.16 1.17088,2.22594 2.52493,3.53995 6.9863,6.7798 1.81053,1.31481 2.44282,1.60035 3.54368,1.60035 1.01796,0 1.71847,0.26912 2.91524,1.12 l 1.57529,1.12 h 3.61015 c 3.37561,0 3.73372,-0.0624 5.5126,-0.96035 z"
     style="fill:#ececec;stroke-width:0.31999999"
     inkscape:connector-curvature="0" />
</svg>
