<?xml version="1.0" encoding="UTF-8" standalone="no"?>
<svg
   xmlns:dc="http://purl.org/dc/elements/1.1/"
   xmlns:cc="http://creativecommons.org/ns#"
   xmlns:rdf="http://www.w3.org/1999/02/22-rdf-syntax-ns#"
   xmlns:svg="http://www.w3.org/2000/svg"
   xmlns="http://www.w3.org/2000/svg"
   id="svg4891"
   version="1.1"
   viewBox="0 0 67.733333 67.733334"
   height="84.666664mm"
   width="84.666664mm">
  <defs
     id="defs4885" />
  <metadata
     id="metadata4888">
    <rdf:RDF>
      <cc:Work
         rdf:about="">
        <dc:format>image/svg+xml</dc:format>
        <dc:type
           rdf:resource="http://purl.org/dc/dcmitype/StillImage" />
        <dc:title></dc:title>
      </cc:Work>
    </rdf:RDF>
  </metadata>
  <g
     transform="translate(-61.148348,-35.566174)"
     id="layer1">
    <path
       id="rect29-4-6"
       d="m 65.278121,35.649969 c -2.216,0 -3.999755,1.783757 -3.999755,3.999756 v 59.733408 c 0,2.216007 1.783755,4.000177 3.999755,4.000177 h 59.733399 c 2.216,0 4.00017,-1.78417 4.00017,-4.000177 V 39.649725 c 0,-2.215999 -1.78417,-3.999756 -4.00017,-3.999756 z m 22.891834,14.23417 c 0,0 -0.62321,2.404142 -7.47903,7.123079 3.38339,0.267109 9.97212,4.362704 10.32826,5.342103 l 11.841755,9.971898 9.25959,-4.986155 -6.49925,7.47944 4.71868,3.116295 14.95806,9.615538 -32.765335,-9.971898 c 0,0 0.64572,1.468977 0.35636,1.936419 -0.53422,0.845848 -3.49498,2.804997 -3.49498,2.804997 l 2.5152,0.86775 c 0.31163,0.311629 -0.15558,0.378625 -0.62302,0.35636 0,0 -3.02717,-0.979111 -4.36273,-0.890073 -1.49136,0.06678 -6.23259,3.026998 -6.23259,3.026998 -0.91263,0 -0.40067,-1.00174 0,-1.157552 0,0 3.96192,-2.849232 6.8556,-2.849232 0.2226,0 1.24644,0.267064 1.24644,0.267064 l 1.86986,-2.759934 c 0,0 -2.18141,-0.846155 -3.1163,-2.226221 0,0 -8.28032,-0.934642 -10.86238,-3.026999 -2.89369,-2.181396 -2.82678,-9.794039 -3.205181,-10.328258 -0.912631,-1.023923 -1.090752,-3.005123 -1.157552,-4.006784 -1.175792,0 -2.490261,-0.632945 -3.305637,-1.103395 -0.09989,0.14558 -0.240491,0.285807 -0.434083,0.324527 0,0 -0.64562,-0.06689 -1.024021,0.24474 -0.934887,0.400663 -1.068254,1.69168 -1.068254,1.69168 0,0 -1.023931,-1.468825 -0.712309,-4.42929 0.549066,-0.954323 1.098389,-1.142689 1.647446,-1.714005 0,0 -0.06695,-0.55695 0.222415,-0.868579 0.2226,-0.311626 0.489547,-0.35571 0.934723,-0.133117 0,0 0.03248,0.08483 0.05168,0.134358 0.557305,-0.922221 1.779619,-2.248959 4.222172,-2.248959 3.205311,-1.246511 6.360461,3.089057 9.348891,2.136511 1.2442,-0.396585 5.96552,-3.739306 5.96552,-3.739306 z"
       style="fill:#ececec;stroke-width:0.21166666" />
  </g>
</svg>
