<?xml version="1.0" encoding="UTF-8" standalone="no"?>
<svg
   xmlns:dc="http://purl.org/dc/elements/1.1/"
   xmlns:cc="http://creativecommons.org/ns#"
   xmlns:rdf="http://www.w3.org/1999/02/22-rdf-syntax-ns#"
   xmlns:svg="http://www.w3.org/2000/svg"
   xmlns="http://www.w3.org/2000/svg"
   id="svg4891"
   version="1.1"
   viewBox="0 0 67.733333 67.733334"
   height="84.666664mm"
   width="84.666664mm">
  <defs
     id="defs4885" />
  <metadata
     id="metadata4888">
    <rdf:RDF>
      <cc:Work
         rdf:about="">
        <dc:format>image/svg+xml</dc:format>
        <dc:type
           rdf:resource="http://purl.org/dc/dcmitype/StillImage" />
        <dc:title></dc:title>
      </cc:Work>
    </rdf:RDF>
  </metadata>
  <g
     transform="translate(-61.148348,-35.566174)"
     id="layer1">
    <path
       id="rect29-4-6-3"
       d="m 65.148103,35.566174 c -2.216,0 -3.999755,1.783755 -3.999755,3.999755 v 59.733415 c 0,2.215996 1.783755,4.000166 3.999755,4.000166 h 59.733407 c 2.216,0 4.00017,-1.78417 4.00017,-4.000166 V 39.565929 c 0,-2.216 -1.78417,-3.999755 -4.00017,-3.999755 z m 5.060571,12.812033 h 49.744146 c 2.41946,0 4.36728,1.995672 4.36728,4.474354 v 30.393593 c 0,2.47869 -1.94782,4.47436 -4.36728,4.47436 H 70.208674 c -2.41946,0 -4.36728,-1.99567 -4.36728,-4.47436 V 52.852561 c 0,-2.478682 1.94782,-4.474354 4.36728,-4.474354 z m 15.945284,8.959868 V 79.188112 L 105.07662,68.263301 Z"
       style="fill:#ececec;stroke-width:0.21166666" />
  </g>
</svg>
